<svg width="31" height="30" viewBox="0 0 31 30" fill="none" xmlns="http://www.w3.org/2000/svg">
<path d="M24.7558 7.03764C24.5525 6.77816 24.247 6.5984 23.8939 6.59832C23.5408 6.59825 23.2352 6.77787 23.0318 7.03726C22.8307 7.29372 22.7312 7.62069 22.7311 7.94332L22.7301 12.5148L19.2551 12.5141C18.902 12.514 18.5964 12.6936 18.393 12.953C18.1919 13.2095 18.0923 13.5365 18.0923 13.8591C18.0922 14.1817 18.1916 14.5087 18.3926 14.7653C18.5959 15.0248 18.9014 15.2045 19.2545 15.2046L22.7295 15.2054L22.7285 19.7769C22.7285 20.0995 22.8279 20.4265 23.0288 20.6831C23.2321 20.9426 23.5377 21.1223 23.8907 21.1224C24.2438 21.1225 24.5494 20.9428 24.7528 20.6835C24.9539 20.427 25.0535 20.1 25.0535 19.7774L25.0545 15.2059L28.5296 15.2066C28.8827 15.2067 29.1883 15.0271 29.3917 14.7677C29.5928 14.5112 29.6923 14.1843 29.6924 13.8616C29.6924 13.539 29.593 13.212 29.3921 12.9554C29.1888 12.6959 28.8832 12.5162 28.5302 12.5161L25.0551 12.5154L25.0561 7.94383C25.0562 7.6212 24.9568 7.29419 24.7558 7.03764Z" fill="white" stroke="white"/>
<path fill-rule="evenodd" clip-rule="evenodd" d="M9.95857 0.584172C10.2814 0.584208 10.5971 0.706136 10.8657 0.934599C11.1343 1.16306 11.3439 1.48784 11.4682 1.86804L17.5845 20.6111L17.6131 20.6987L19.6418 26.9154C19.8008 27.4245 19.7965 27.993 19.6298 28.4981C19.4631 29.0032 19.1474 29.4044 18.7508 29.615C18.3543 29.8257 17.9087 29.8289 17.5103 29.6239C17.112 29.419 16.7928 29.0224 16.6217 28.5197L14.9976 23.5428L4.90953 23.5406L3.28326 28.5178C3.11612 29.0287 2.79677 29.434 2.39546 29.6444C1.99415 29.8549 1.54376 29.8534 1.14337 29.6402C0.742976 29.427 0.425379 29.0196 0.260446 28.5076C0.0955126 27.9956 0.0967538 27.421 0.263896 26.9102L2.2953 20.6954C2.30432 20.6655 2.31387 20.636 2.32394 20.6067L8.44844 1.86842C8.57269 1.48809 8.78241 1.16318 9.05115 0.934637C9.31988 0.706097 9.63562 0.584153 9.95857 0.584172ZM6.27389 19.3668L13.6351 19.3684L9.95694 8.09754L6.27389 19.3668Z" fill="white"/>
</svg>
