<svg width="25" height="28" viewBox="0 0 25 28" fill="none" xmlns="http://www.w3.org/2000/svg">
<path fill-rule="evenodd" clip-rule="evenodd" d="M2.94997 9.13783L2.84913 9.13781C2.18055 9.13767 1.53927 9.47639 1.06637 10.0795C0.593478 10.6825 0.327704 11.5005 0.327518 12.3536L0.326816 15.5698C0.32663 16.4229 0.592047 17.241 1.06468 17.8443C1.53731 18.4475 2.17844 18.7865 2.84703 18.7867L2.94786 18.7867C3.31158 18.7866 3.671 18.8869 4.00145 19.0807C4.3319 19.2745 4.62555 19.5573 4.86225 19.9096L9.45135 26.7452C10.2124 27.8775 11.6684 27.1912 11.6687 25.6988L11.6738 2.22954C11.6742 0.737176 10.2185 0.0501805 9.45566 1.18376L4.86611 8.01416C4.62923 8.36685 4.33531 8.64992 4.00453 8.84389C3.67376 9.03786 3.31399 9.13814 2.94997 9.13783ZM20.0384 1.54307C19.9191 1.39305 19.7776 1.27487 19.6221 1.19542C19.4667 1.11597 19.3003 1.07685 19.1329 1.08035C18.9654 1.08386 18.8002 1.12991 18.6468 1.21581C18.4934 1.30172 18.355 1.42576 18.2396 1.58069C18.1243 1.73561 18.0343 1.91832 17.9749 2.11813C17.9155 2.31794 17.8879 2.53084 17.8937 2.7444C17.8995 2.95796 17.9386 3.16789 18.0088 3.36193C18.0789 3.55597 18.1787 3.73022 18.3022 3.87451C22.908 9.45899 22.906 18.4743 18.2978 24.0567C18.1742 24.201 18.0744 24.3752 18.0042 24.5692C17.9339 24.7632 17.8947 24.9731 17.8888 25.1867C17.8829 25.4002 17.9104 25.6131 17.9697 25.813C18.029 26.0128 18.1189 26.1955 18.2342 26.3505C18.3495 26.5055 18.4879 26.6296 18.6412 26.7156C18.7946 26.8015 18.9598 26.8477 19.1272 26.8512C19.2947 26.8548 19.4611 26.8158 19.6166 26.7364C19.7721 26.657 19.9136 26.5389 20.033 26.3889C25.6876 19.5395 25.69 8.39501 20.0384 1.54307ZM16.3228 6.04507C16.0805 5.75115 15.7566 5.59209 15.4224 5.60288C15.0881 5.61366 14.7709 5.79341 14.5405 6.10258C14.3101 6.41174 14.1854 6.825 14.1938 7.25145C14.2023 7.67789 14.3431 8.08259 14.5854 8.3765C17.1397 11.4727 17.1386 16.458 14.583 19.5531C14.4629 19.6986 14.3665 19.8728 14.2993 20.0658C14.232 20.2588 14.1952 20.4668 14.1909 20.678C14.1867 20.8891 14.215 21.0993 14.2744 21.2964C14.3338 21.4936 14.4231 21.6739 14.5371 21.827C14.7674 22.1363 15.0845 22.3162 15.4187 22.3271C15.5842 22.3325 15.749 22.2963 15.9035 22.2205C16.058 22.1447 16.1993 22.0308 16.3194 21.8853C19.9215 17.5216 19.923 10.4104 16.3228 6.04507Z" fill="white"/>
</svg>
