<svg width="31" height="27" viewBox="0 0 31 27" fill="none" xmlns="http://www.w3.org/2000/svg">
<path d="M28.0818 12.9022L19.7803 12.9004" stroke="white" stroke-width="5" stroke-linecap="round"/>
<path fill-rule="evenodd" clip-rule="evenodd" d="M9.73368 0.0768573C10.0211 0.0768894 10.3021 0.185445 10.5413 0.388851C10.7805 0.592258 10.9671 0.881418 11.0777 1.21991L16.5232 17.9073L16.5487 17.9853L18.3549 23.5202C18.4965 23.9735 18.4926 24.4796 18.3442 24.9293C18.1958 25.379 17.9147 25.7362 17.5616 25.9237C17.2086 26.1113 16.8119 26.1141 16.4572 25.9317C16.1025 25.7492 15.8183 25.3961 15.666 24.9486L14.2201 20.5175L5.23839 20.5155L3.79048 24.9469C3.64167 25.4017 3.35734 25.7625 3.00005 25.9499C2.64275 26.1373 2.24176 26.136 1.88528 25.9462C1.5288 25.7564 1.24603 25.3936 1.09919 24.9378C0.952344 24.482 0.953449 23.9704 1.10226 23.5155L2.91087 17.9824C2.9189 17.9558 2.9274 17.9295 2.93637 17.9034L8.38916 1.22026C8.49979 0.881635 8.68651 0.59236 8.92577 0.388885C9.16504 0.18541 9.44615 0.0768405 9.73368 0.0768573ZM6.45311 16.7995L13.007 16.8009L9.73222 6.7662L6.45311 16.7995Z" fill="white"/>
</svg>
