<svg width="221" height="221" viewBox="0 0 221 221" fill="none" xmlns="http://www.w3.org/2000/svg">
<path d="M44.5384 141.777L44.5488 93.7774L101.549 93.7898L101.545 113.518C100.405 113.517 99.4545 113.419 98.8846 113.222C98.1713 112.915 97.4952 112.53 96.8214 112.146L96.8214 112.146L96.8214 112.146C95.3417 111.304 93.8729 110.469 92.0452 110.468C89.3852 110.468 86.915 111.45 85.2046 113.219C83.4942 114.988 82.5436 117.544 82.543 120.296C82.5424 123.049 83.4919 125.604 85.2015 127.374C86.9111 129.144 89.3809 130.127 92.0409 130.128C93.8686 130.128 95.3377 129.293 96.8178 128.452C97.4918 128.069 98.1681 127.685 98.8815 127.377C99.4516 127.082 100.402 127.083 101.542 127.083L101.537 149.79L52.5366 149.779C48.1183 149.778 44.5374 146.196 44.5384 141.777Z" fill="#CDDBE8"/>
<path d="M120.791 62.0291C122.568 63.627 123.555 65.9347 123.555 68.4197C123.554 70.9047 122.566 73.212 120.788 74.8091C119.01 76.4062 116.443 77.2931 113.678 77.2925C110.913 77.2919 108.938 75.694 106.568 74.806C105.976 74.6283 104.988 74.5394 103.803 74.5391L103.799 95.0404L80.9877 95.0354L80.9877 95.0354C80.9875 96.1004 80.9873 96.9879 81.2834 97.5205C82.2704 99.6507 84.0475 101.426 84.047 103.911C84.0465 106.396 83.0584 108.703 81.2806 110.3C79.5027 111.898 76.9351 112.785 74.1701 112.784C71.4051 112.783 68.8378 111.895 67.0606 110.297C65.2834 108.699 64.2965 106.392 64.297 103.907C64.2975 101.422 66.0754 99.6471 67.0634 97.5174C67.261 96.9849 67.36 96.0974 67.3602 95.0324L44.5489 95.0274L44.5588 49.7774C44.5598 45.3592 48.1423 41.7782 52.5606 41.7792L103.811 41.7904L103.806 62.2916L103.806 62.2916C104.991 62.2919 105.979 62.2921 106.571 62.026C108.941 61.139 110.917 59.5419 113.682 59.5425C116.447 59.5431 119.014 60.4312 120.791 62.0291Z" fill="#81A6C6"/>
<path d="M101.561 41.7899L153.561 41.8012C157.979 41.8022 161.56 45.3847 161.559 49.803L161.549 95.053L138.449 95.0479C138.449 96.1129 138.449 97.0004 138.748 97.533C139.748 99.6632 141.548 101.439 141.547 103.924C141.546 106.409 140.546 108.716 138.746 110.313C136.945 111.91 134.345 112.797 131.545 112.796C128.745 112.796 126.145 111.908 124.346 110.31C122.546 108.712 121.546 106.404 121.547 103.919C121.548 101.434 123.348 99.6596 124.348 97.5299C124.549 96.9974 124.649 96.1099 124.649 95.0449L101.549 95.0399L101.561 41.7899Z" fill="#CDDBE8"/>
<path d="M92.4713 120.276L91.9821 120.598L104.137 139.054C103.11 139.731 102.201 140.215 101.582 140.393C100.775 140.567 99.9597 140.655 99.1473 140.744C97.3632 140.938 95.5923 141.131 93.9453 142.215C91.5484 143.794 89.8488 146.059 89.255 148.512C88.6613 150.965 89.1733 153.606 90.6467 155.843C92.12 158.08 94.3442 159.594 96.8322 160.017C99.3203 160.441 102.072 159.774 104.469 158.195C106.116 157.111 106.993 155.56 107.876 153.997C108.278 153.286 108.681 152.572 109.159 151.899C109.515 151.321 110.371 150.757 111.399 150.081L124.198 169.516L169.859 139.445C173.549 137.015 174.57 132.053 172.14 128.363L144.646 86.616L124.683 99.7633C125.36 100.791 125.923 101.647 126.521 101.99C127.215 102.454 127.954 102.841 128.691 103.226C130.309 104.073 131.915 104.913 133 106.56C134.578 108.957 135.18 111.751 134.639 114.317C134.098 116.882 132.415 119.218 129.995 120.812C127.576 122.405 124.765 123.029 122.195 122.513C119.624 121.996 117.294 120.339 115.716 117.942C114.631 116.295 114.494 114.488 114.355 112.667C114.292 111.838 114.229 111.006 114.076 110.185C113.911 109.558 113.433 108.645 112.757 107.618L92.7935 120.765L92.4713 120.276Z" fill="#034D8C"/>
</svg>
